<svg width="56" height="100" viewBox="0 0 56 100" fill="none" xmlns="http://www.w3.org/2000/svg">
<path fill-rule="evenodd" clip-rule="evenodd" d="M38.6594 32.5515C34.3142 29.1251 29.8935 52.5169 19.8392 59.5234C10.5372 66.0055 -1.82566 69.031 0.225697 72.7858C2.74945 77.4053 17.2432 64.2174 22.425 67.2346C28.757 70.9215 8.30925 97.8589 13.8854 99.7794C18.7438 101.453 28.9616 67.0584 39.0124 72.0377C41.6256 73.3323 33.1792 88.5815 37.3614 89.7737C40.7305 90.7339 48.1966 71.7478 45.9655 67.7698C42.4545 61.5101 29.5483 67.1618 31.6288 54.9798C32.4941 49.9132 41.3995 34.7122 38.6594 32.5515Z" fill="#2A77D5"/>
<path fill-rule="evenodd" clip-rule="evenodd" d="M13.4155 49.8251C13.7712 46.7163 16.373 44.4754 19.2266 44.8202C22.0803 45.1648 24.1053 47.9643 23.7496 51.0732C23.3938 54.182 20.7921 56.4228 17.9385 56.0781C15.0847 55.7334 13.0598 52.9338 13.4155 49.8251Z" fill="#2A77D5"/>
<path fill-rule="evenodd" clip-rule="evenodd" d="M55.839 10.6337C56.1963 10.9943 55.9042 11.6507 55.4607 11.6239L50.4854 11.323C50.3373 11.3168 50.1938 11.3777 50.092 11.49L46.3608 15.664C45.9729 16.098 45.2243 15.8959 45.3127 15.1326L45.9319 9.78735C45.9418 9.53432 45.8476 9.28909 45.6732 9.1131L42.1887 5.59706C41.8501 5.25537 42.0954 4.65836 42.566 4.67816L47.5624 4.88841C47.7085 4.89459 47.85 4.83548 47.9517 4.72594L51.4288 0.978649C51.7565 0.625552 52.329 0.88126 52.31 1.37214L52.1082 6.58241C52.1023 6.73472 52.1404 6.90172 52.2456 7.00758L55.839 10.6337Z" fill="#2A77D5"/>
</svg>
