<svg width="1364" height="52" viewBox="0 0 1364 52" fill="none" xmlns="http://www.w3.org/2000/svg">
    <path fill-rule="evenodd" clip-rule="evenodd"
        d="M654.118 18.8232C652.293 17.4387 650.435 26.89 646.211 29.7209C642.302 32.3399 637.108 33.5623 637.97 35.0794C639.03 36.9459 645.12 31.6175 647.297 32.8365C649.958 34.3262 641.366 45.21 643.709 45.9859C645.751 46.6621 650.044 32.7653 654.267 34.7772C655.365 35.3002 651.816 41.4615 653.573 41.9432C654.989 42.3312 658.126 34.66 657.188 33.0528C655.713 30.5236 650.29 32.8071 651.164 27.8851C651.528 25.838 655.27 19.6962 654.118 18.8232Z"
        fill="#2A77D5" />
    <path fill-rule="evenodd" clip-rule="evenodd"
        d="M643.513 25.802C643.663 24.5459 644.756 23.6405 645.955 23.7798C647.154 23.919 648.005 25.0501 647.855 26.3062C647.706 27.5623 646.613 28.4677 645.414 28.3284C644.214 28.1892 643.364 27.058 643.513 25.802Z"
        fill="#2A77D5" />
    <path fill-rule="evenodd" clip-rule="evenodd"
        d="M661.337 9.96739C661.487 10.1131 661.364 10.3783 661.178 10.3674L659.087 10.2459C659.025 10.2434 658.965 10.268 658.922 10.3134L657.354 11.9998C657.191 12.1752 656.877 12.0935 656.914 11.7851L657.174 9.62541C657.178 9.52318 657.139 9.42409 657.065 9.35299L655.601 7.93237C655.459 7.79431 655.562 7.55309 655.76 7.56109L657.859 7.64604C657.921 7.64854 657.98 7.62466 658.023 7.5804L659.484 6.06634C659.621 5.92368 659.862 6.02699 659.854 6.22533L659.769 8.33049C659.767 8.39203 659.783 8.4595 659.827 8.50228L661.337 9.96739Z"
        fill="#2A77D5" />
    <path
        d="M765.305 39.4076L765.215 38.0472L770.366 37.3216C770.33 36.7532 770.13 36.2815 769.768 35.9067C769.405 35.5197 768.891 35.3262 768.226 35.3262C767.548 35.3262 766.986 35.568 766.539 36.0518C766.091 36.5355 765.861 37.2248 765.849 38.1197L765.886 38.809C765.982 39.6676 766.291 40.3146 766.811 40.75C767.331 41.1732 768.014 41.3849 768.861 41.3849C769.369 41.3849 769.834 41.3063 770.257 41.1491C770.681 40.9918 771.019 40.8225 771.273 40.6411C771.418 40.7258 771.533 40.8407 771.618 40.9858C771.715 41.1309 771.763 41.2881 771.763 41.4574C771.763 41.7235 771.63 41.9654 771.364 42.183C771.098 42.4007 770.735 42.57 770.276 42.6909C769.828 42.8119 769.32 42.8723 768.752 42.8723C767.821 42.8723 767.004 42.703 766.303 42.3644C765.601 42.0137 765.057 41.4998 764.67 40.8225C764.283 40.1332 764.09 39.2928 764.09 38.3011C764.09 37.5876 764.193 36.9588 764.398 36.4146C764.616 35.8583 764.912 35.3927 765.287 35.0178C765.662 34.6429 766.103 34.3587 766.611 34.1652C767.119 33.9717 767.663 33.875 768.244 33.875C769.006 33.875 769.677 34.0383 770.257 34.3648C770.85 34.6792 771.309 35.1206 771.636 35.689C771.963 36.2574 772.126 36.9043 772.126 37.6299C772.126 37.9323 772.053 38.156 771.908 38.3011C771.763 38.4341 771.557 38.5188 771.291 38.5551L765.305 39.4076Z"
        fill="#2A77D5" />
    <path
        d="M759.592 36.1178V34.6484H763.328C763.377 34.7089 763.419 34.8057 763.455 34.9387C763.504 35.0717 763.528 35.2168 763.528 35.374C763.528 35.628 763.467 35.8154 763.346 35.9364C763.238 36.0573 763.074 36.1178 762.857 36.1178H759.592ZM759.9 33.6508V35.882H758.086V33.5601C758.086 32.8224 758.231 32.2238 758.521 31.7642C758.812 31.3047 759.217 30.9661 759.737 30.7484C760.257 30.5307 760.861 30.4219 761.551 30.4219C762.288 30.4219 762.857 30.5186 763.256 30.7121C763.655 30.9056 763.854 31.1717 763.854 31.5103C763.854 31.6675 763.818 31.8126 763.746 31.9456C763.685 32.0786 763.606 32.1935 763.51 32.2903C763.292 32.1814 763.026 32.0968 762.712 32.0363C762.409 31.9638 762.101 31.9275 761.786 31.9275C761.109 31.9275 760.626 32.0605 760.335 32.3266C760.045 32.5926 759.9 33.034 759.9 33.6508ZM758.086 35.1745H759.954V42.5755C759.87 42.5997 759.749 42.63 759.592 42.6662C759.446 42.7025 759.283 42.7207 759.102 42.7207C758.763 42.7207 758.509 42.6541 758.34 42.5211C758.171 42.3881 758.086 42.1704 758.086 41.8681V35.1745Z"
        fill="#2A77D5" />
    <path
        d="M753.922 31.5337C753.922 31.2193 754.031 30.9593 754.248 30.7537C754.466 30.5481 754.732 30.4453 755.047 30.4453C755.385 30.4453 755.657 30.5481 755.863 30.7537C756.068 30.9593 756.171 31.2193 756.171 31.5337C756.171 31.836 756.068 32.096 755.863 32.3137C755.657 32.5193 755.385 32.6221 755.047 32.6221C754.732 32.6221 754.466 32.5193 754.248 32.3137C754.031 32.096 753.922 31.836 753.922 31.5337ZM754.121 37.8282H755.99V42.5808C755.905 42.605 755.784 42.6353 755.627 42.6715C755.482 42.7078 755.319 42.726 755.137 42.726C754.799 42.726 754.545 42.6594 754.375 42.5264C754.206 42.3934 754.121 42.1757 754.121 41.8734V37.8282ZM755.99 38.7533H754.121V34.1821C754.206 34.1579 754.327 34.1337 754.484 34.1096C754.641 34.0733 754.811 34.0551 754.992 34.0551C755.331 34.0551 755.579 34.1216 755.736 34.2547C755.905 34.3756 755.99 34.5933 755.99 34.9077V38.7533Z"
        fill="#2A77D5" />
    <path
        d="M745.328 35.7679H747.233V42.4615L746.344 42.6247C746.042 42.6247 745.794 42.528 745.6 42.3345C745.419 42.141 745.328 41.8931 745.328 41.5908V35.7679ZM746.344 42.6247V41.0284H752.185C752.245 41.101 752.3 41.2038 752.348 41.3368C752.397 41.4698 752.421 41.621 752.421 41.7903C752.421 42.0563 752.354 42.2619 752.221 42.407C752.088 42.5522 751.913 42.6247 751.695 42.6247H746.344ZM747.233 37.6363H745.328V31.5957C745.413 31.5715 745.534 31.5474 745.691 31.5232C745.86 31.4869 746.036 31.4688 746.217 31.4688C746.568 31.4688 746.822 31.5353 746.979 31.6683C747.148 31.7892 747.233 32.0129 747.233 32.3395V37.6363Z"
        fill="#2A77D5" />
    <path
        d="M741.512 41.6582C741.512 41.3196 741.615 41.0354 741.82 40.8056C742.038 40.5758 742.328 40.4609 742.691 40.4609C743.066 40.4609 743.356 40.5758 743.562 40.8056C743.767 41.0354 743.87 41.3196 743.87 41.6582C743.87 41.9968 743.767 42.281 743.562 42.5107C743.356 42.7405 743.066 42.8554 742.691 42.8554C742.328 42.8554 742.038 42.7405 741.82 42.5107C741.615 42.281 741.512 41.9968 741.512 41.6582Z"
        fill="#2A77D5" />
    <path
        d="M736.51 42.8615C736.026 42.8615 735.585 42.795 735.186 42.6619C734.799 42.541 734.478 42.4019 734.224 42.2447V40.3219C734.454 40.5154 734.726 40.6908 735.041 40.848C735.367 40.9931 735.748 41.0656 736.184 41.0656C736.909 41.0656 737.484 40.8419 737.907 40.3945C738.33 39.9349 738.542 39.2275 738.542 38.2721C738.542 37.607 738.439 37.0809 738.233 36.6939C738.04 36.2949 737.768 36.0046 737.417 35.8232C737.066 35.6418 736.673 35.5511 736.238 35.5511C735.899 35.5511 735.603 35.5935 735.349 35.6781C735.095 35.7507 734.877 35.8414 734.696 35.9502V41.6824H732.465V35.7325C732.465 35.4544 732.519 35.2246 732.628 35.0432C732.737 34.8618 732.918 34.6925 733.172 34.5353C733.523 34.3297 733.958 34.1544 734.478 34.0093C734.998 33.852 735.585 33.7734 736.238 33.7734C737.121 33.7734 737.907 33.9306 738.596 34.2451C739.285 34.5474 739.824 35.0311 740.211 35.6963C740.61 36.3614 740.809 37.22 740.809 38.2721C740.809 39.2879 740.622 40.1345 740.247 40.8117C739.884 41.4889 739.376 42.0029 738.723 42.3536C738.082 42.6922 737.344 42.8615 736.51 42.8615ZM734.696 41.0656V45.8545C734.599 45.8908 734.46 45.9211 734.279 45.9452C734.097 45.9815 733.898 45.9997 733.68 45.9997C733.269 45.9997 732.961 45.9211 732.755 45.7638C732.562 45.6066 732.465 45.3345 732.465 44.9476V41.0475L734.696 41.0656Z"
        fill="#2A77D5" />
    <path
        d="M726.075 42.8734C725.12 42.8734 724.297 42.7041 723.608 42.3655C722.919 42.0148 722.393 41.525 722.03 40.8962C721.679 40.2673 721.504 39.5296 721.504 38.6831V37.377H723.79V38.5924C723.79 39.3664 724.001 39.965 724.424 40.3882C724.86 40.7994 725.41 41.005 726.075 41.005C726.728 41.005 727.272 40.7994 727.708 40.3882C728.143 39.965 728.361 39.3664 728.361 38.5924V37.377H730.665V38.6831C730.665 39.5296 730.483 40.2673 730.12 40.8962C729.758 41.525 729.231 42.0148 728.542 42.3655C727.865 42.7041 727.043 42.8734 726.075 42.8734ZM723.79 38.0119H721.504V31.5904C721.601 31.5662 721.746 31.536 721.939 31.4997C722.145 31.4635 722.35 31.4453 722.556 31.4453C722.991 31.4453 723.306 31.5239 723.499 31.6811C723.693 31.8262 723.79 32.1044 723.79 32.5156V38.0119ZM730.665 38.0301H728.361V31.5904C728.457 31.5662 728.609 31.536 728.814 31.4997C729.02 31.4635 729.225 31.4453 729.431 31.4453C729.854 31.4453 730.163 31.5239 730.356 31.6811C730.562 31.8262 730.665 32.1044 730.665 32.5156V38.0301Z"
        fill="#2A77D5" />
    <path
        d="M717.686 40.9599V35.0645H719.554V41.105C719.554 41.359 719.5 41.5646 719.391 41.7218C719.282 41.879 719.107 42.0302 718.865 42.1753C718.599 42.3446 718.23 42.5018 717.759 42.6469C717.287 42.8041 716.743 42.8827 716.126 42.8827C715.207 42.8827 714.403 42.7255 713.713 42.4111C713.036 42.0967 712.504 41.613 712.117 40.9599C711.742 40.2948 711.555 39.4483 711.555 38.4203C711.555 37.3682 711.742 36.5096 712.117 35.8445C712.492 35.1794 713.006 34.6896 713.659 34.3752C714.312 34.0487 715.025 33.8854 715.799 33.8854C716.259 33.8854 716.688 33.9459 717.087 34.0668C717.486 34.1877 717.801 34.3389 718.031 34.5203V36.1529C717.813 35.9473 717.535 35.7719 717.196 35.6268C716.858 35.4696 716.465 35.391 716.017 35.391C715.545 35.391 715.11 35.4938 714.711 35.6994C714.324 35.8929 714.016 36.2133 713.786 36.6608C713.556 37.1082 713.441 37.7008 713.441 38.4385C713.441 39.4543 713.683 40.1981 714.167 40.6697C714.651 41.1413 715.298 41.3771 716.108 41.3771C716.483 41.3771 716.791 41.3348 717.033 41.2502C717.287 41.1655 717.505 41.0688 717.686 40.9599ZM719.554 35.4817H717.686V30.8561C717.771 30.8319 717.892 30.8016 718.049 30.7654C718.206 30.7291 718.369 30.7109 718.539 30.7109C718.889 30.7109 719.143 30.7774 719.3 30.9105C719.47 31.0314 719.554 31.2491 719.554 31.5635V35.4817Z"
        fill="#2A77D5" />
    <path
        d="M709.873 37.0495V38.8453H708.004V37.122C708.004 36.5174 707.835 36.076 707.496 35.7978C707.158 35.5197 706.704 35.3806 706.136 35.3806C705.713 35.3806 705.332 35.435 704.993 35.5439C704.654 35.6527 704.364 35.7736 704.122 35.9067V38.8453H702.254V35.8704C702.254 35.5922 702.308 35.3685 702.417 35.1992C702.538 35.0178 702.726 34.8485 702.979 34.6913C703.318 34.4857 703.76 34.2983 704.304 34.129C704.848 33.9597 705.459 33.875 706.136 33.875C707.309 33.875 708.222 34.1411 708.875 34.6732C709.54 35.1932 709.873 35.9853 709.873 37.0495ZM702.254 37.902H704.122V42.5821C704.038 42.6063 703.917 42.6365 703.76 42.6728C703.614 42.7091 703.451 42.7272 703.27 42.7272C702.931 42.7272 702.677 42.6607 702.508 42.5277C702.339 42.3947 702.254 42.177 702.254 41.8747V37.902ZM708.004 37.902H709.873V42.5821C709.788 42.6063 709.667 42.6365 709.51 42.6728C709.353 42.7091 709.189 42.7272 709.02 42.7272C708.669 42.7272 708.409 42.6607 708.24 42.5277C708.083 42.3947 708.004 42.177 708.004 41.8747V37.902Z"
        fill="#2A77D5" />
    <path
        d="M695.796 33.1013H695.705C695.548 33.573 695.354 34.1232 695.124 34.7521C694.907 35.3688 694.683 36.0158 694.453 36.693C694.224 37.3581 694.006 37.987 693.8 38.5796L693.637 39.3051C693.564 39.5228 693.48 39.7828 693.383 40.0852C693.286 40.3875 693.184 40.7019 693.075 41.0284C692.978 41.3428 692.881 41.6391 692.784 41.9173C692.688 42.1954 692.615 42.4312 692.567 42.6247C692.458 42.661 692.343 42.6912 692.222 42.7154C692.113 42.7517 691.974 42.7698 691.805 42.7698C691.515 42.7698 691.273 42.7033 691.079 42.5703C690.886 42.4373 690.789 42.2377 690.789 41.9717C690.789 41.8508 690.807 41.7298 690.843 41.6089C690.892 41.4759 690.94 41.3308 690.989 41.1735C691.122 40.7624 691.291 40.2605 691.497 39.6679C691.702 39.0633 691.932 38.4102 692.186 37.7088C692.44 37.0074 692.7 36.3 692.966 35.5865C693.232 34.8609 693.486 34.1655 693.728 33.5004C693.982 32.8353 694.205 32.2548 694.399 31.759C694.52 31.6985 694.707 31.6381 694.961 31.5776C695.215 31.505 695.469 31.4688 695.723 31.4688C696.062 31.4688 696.37 31.5171 696.648 31.6139C696.938 31.7106 697.12 31.8739 697.192 32.1036C697.471 32.7809 697.761 33.5609 698.063 34.4437C698.378 35.3144 698.692 36.2214 699.006 37.1646C699.333 38.1079 699.641 39.027 699.932 39.9219C700.222 40.8168 700.482 41.627 700.712 42.3526C700.615 42.4736 700.476 42.5703 700.294 42.6429C700.113 42.7154 699.913 42.7517 699.696 42.7517C699.369 42.7517 699.133 42.6912 698.988 42.5703C698.843 42.4373 698.722 42.2317 698.625 41.9536L697.773 39.3051L697.573 38.4526C697.356 37.7754 697.132 37.1042 696.902 36.4391C696.684 35.7618 696.479 35.139 696.285 34.5707C696.092 33.9902 695.929 33.5004 695.796 33.1013ZM692.766 39.8312L693.437 38.3075H698.226L698.535 39.8312H692.766Z"
        fill="#2A77D5" />
    <path
        d="M685.6 42.8615C685.116 42.8615 684.675 42.795 684.276 42.6619C683.889 42.541 683.568 42.4019 683.314 42.2447V40.3219C683.544 40.5154 683.816 40.6908 684.131 40.848C684.457 40.9931 684.838 41.0656 685.273 41.0656C685.999 41.0656 686.573 40.8419 686.997 40.3945C687.42 39.9349 687.632 39.2275 687.632 38.2721C687.632 37.607 687.529 37.0809 687.323 36.6939C687.13 36.2949 686.858 36.0046 686.507 35.8232C686.156 35.6418 685.763 35.5511 685.328 35.5511C684.989 35.5511 684.693 35.5935 684.439 35.6781C684.185 35.7507 683.967 35.8414 683.786 35.9502V41.6824H681.555V35.7325C681.555 35.4544 681.609 35.2246 681.718 35.0432C681.827 34.8618 682.008 34.6925 682.262 34.5353C682.613 34.3297 683.048 34.1544 683.568 34.0093C684.088 33.852 684.675 33.7734 685.328 33.7734C686.211 33.7734 686.997 33.9306 687.686 34.2451C688.375 34.5474 688.913 35.0311 689.3 35.6963C689.699 36.3614 689.899 37.22 689.899 38.2721C689.899 39.2879 689.712 40.1345 689.337 40.8117C688.974 41.4889 688.466 42.0029 687.813 42.3536C687.172 42.6922 686.434 42.8615 685.6 42.8615ZM683.786 41.0656V45.8545C683.689 45.8908 683.55 45.9211 683.369 45.9452C683.187 45.9815 682.988 45.9997 682.77 45.9997C682.359 45.9997 682.051 45.9211 681.845 45.7638C681.651 45.6066 681.555 45.3345 681.555 44.9476V41.0475L683.786 41.0656Z"
        fill="#2A77D5" />
    <path
        d="M674.977 42.8734C674.022 42.8734 673.2 42.7041 672.51 42.3655C671.821 42.0148 671.295 41.525 670.932 40.8962C670.582 40.2673 670.406 39.5296 670.406 38.6831V37.377H672.692V38.5924C672.692 39.3664 672.903 39.965 673.327 40.3882C673.762 40.7994 674.312 41.005 674.977 41.005C675.631 41.005 676.175 40.7994 676.61 40.3882C677.045 39.965 677.263 39.3664 677.263 38.5924V37.377H679.567V38.6831C679.567 39.5296 679.385 40.2673 679.023 40.8962C678.66 41.525 678.134 42.0148 677.444 42.3655C676.767 42.7041 675.945 42.8734 674.977 42.8734ZM672.692 38.0119H670.406V31.5904C670.503 31.5662 670.648 31.536 670.842 31.4997C671.047 31.4635 671.253 31.4453 671.458 31.4453C671.894 31.4453 672.208 31.5239 672.402 31.6811C672.595 31.8262 672.692 32.1044 672.692 32.5156V38.0119ZM679.567 38.0301H677.263V31.5904C677.36 31.5662 677.511 31.536 677.717 31.4997C677.922 31.4635 678.128 31.4453 678.333 31.4453C678.757 31.4453 679.065 31.5239 679.258 31.6811C679.464 31.8262 679.567 32.1044 679.567 32.5156V38.0301Z"
        fill="#2A77D5" />
</svg>