<svg width="160" height="31" viewBox="0 0 160 31" fill="none" xmlns="http://www.w3.org/2000/svg">
<path d="M136.817 17.0275L136.7 15.2778L143.326 14.3447C143.279 13.6137 143.023 13.0071 142.556 12.525C142.089 12.0273 141.428 11.7785 140.573 11.7785C139.702 11.7785 138.979 12.0895 138.403 12.7116C137.828 13.3337 137.532 14.2203 137.517 15.3712L137.564 16.2577C137.688 17.3619 138.085 18.194 138.753 18.7539C139.422 19.2983 140.301 19.5704 141.39 19.5704C142.043 19.5704 142.642 19.4693 143.186 19.2672C143.73 19.065 144.166 18.8472 144.492 18.6139C144.679 18.7228 144.827 18.8706 144.936 19.0572C145.06 19.2438 145.122 19.446 145.122 19.6637C145.122 20.0059 144.951 20.317 144.609 20.5969C144.267 20.8769 143.8 21.0946 143.209 21.2501C142.634 21.4057 141.981 21.4834 141.25 21.4834C140.052 21.4834 139.002 21.2657 138.1 20.8302C137.198 20.3792 136.498 19.7182 136 18.8472C135.503 17.9607 135.254 16.8798 135.254 15.6045C135.254 14.6868 135.386 13.8781 135.65 13.1782C135.93 12.4628 136.311 11.864 136.794 11.3819C137.276 10.8997 137.843 10.5342 138.497 10.2854C139.15 10.0365 139.85 9.91211 140.596 9.91211C141.576 9.91211 142.439 10.1221 143.186 10.542C143.948 10.9464 144.539 11.5141 144.959 12.245C145.379 12.976 145.589 13.8081 145.589 14.7413C145.589 15.1301 145.495 15.4178 145.309 15.6045C145.122 15.7755 144.858 15.8844 144.516 15.9311L136.817 17.0275Z" fill="#0F498F"/>
<path d="M129.464 12.8059V10.9162H134.27C134.332 10.994 134.386 11.1184 134.433 11.2895C134.495 11.4605 134.526 11.6472 134.526 11.8494C134.526 12.176 134.448 12.417 134.293 12.5726C134.153 12.7281 133.943 12.8059 133.663 12.8059H129.464ZM129.86 9.63308V12.5026H127.527V9.51644C127.527 8.56771 127.714 7.79785 128.087 7.20684C128.461 6.61583 128.982 6.18035 129.65 5.9004C130.319 5.62045 131.097 5.48047 131.983 5.48047C132.932 5.48047 133.663 5.60489 134.176 5.85374C134.689 6.10258 134.946 6.44475 134.946 6.88023C134.946 7.08241 134.899 7.26905 134.806 7.44013C134.728 7.61121 134.627 7.75896 134.503 7.88339C134.223 7.74341 133.881 7.63454 133.476 7.55678C133.087 7.46346 132.691 7.4168 132.287 7.4168C131.416 7.4168 130.793 7.58788 130.42 7.93004C130.047 8.27221 129.86 8.83989 129.86 9.63308ZM127.527 11.5927H129.93V21.1111C129.821 21.1422 129.666 21.1811 129.464 21.2277C129.277 21.2744 129.067 21.2977 128.834 21.2977C128.398 21.2977 128.072 21.2122 127.854 21.0411C127.636 20.87 127.527 20.5901 127.527 20.2012V11.5927Z" fill="#0F498F"/>
<path d="M122.184 6.90366C122.184 6.49929 122.324 6.1649 122.604 5.9005C122.883 5.63611 123.226 5.50391 123.63 5.50391C124.065 5.50391 124.415 5.63611 124.68 5.9005C124.944 6.1649 125.076 6.49929 125.076 6.90366C125.076 7.29248 124.944 7.62687 124.68 7.90682C124.415 8.17122 124.065 8.30342 123.63 8.30342C123.226 8.30342 122.883 8.17122 122.604 7.90682C122.324 7.62687 122.184 7.29248 122.184 6.90366ZM122.44 14.9989H124.843V21.1112C124.734 21.1423 124.579 21.1812 124.377 21.2278C124.19 21.2745 123.98 21.2978 123.747 21.2978C123.311 21.2978 122.985 21.2123 122.767 21.0412C122.549 20.8701 122.44 20.5902 122.44 20.2014V14.9989ZM124.843 16.1887H122.44V10.3097C122.549 10.2786 122.705 10.2475 122.907 10.2164C123.109 10.1698 123.327 10.1464 123.56 10.1464C123.996 10.1464 124.314 10.232 124.517 10.4031C124.734 10.5586 124.843 10.8385 124.843 11.2429V16.1887Z" fill="#0F498F"/>
<path d="M111.129 12.3611H113.578V20.9696L112.435 21.1795C112.047 21.1795 111.728 21.0551 111.479 20.8063C111.246 20.5574 111.129 20.2386 111.129 19.8498V12.3611ZM112.435 21.1795V19.1266H119.947C120.025 19.2199 120.095 19.3521 120.157 19.5232C120.22 19.6942 120.251 19.8887 120.251 20.1064C120.251 20.4486 120.165 20.713 119.994 20.8996C119.823 21.0862 119.597 21.1795 119.317 21.1795H112.435ZM113.578 14.764H111.129V6.99534C111.238 6.96423 111.393 6.93313 111.595 6.90202C111.813 6.85536 112.039 6.83203 112.272 6.83203C112.723 6.83203 113.05 6.91757 113.252 7.08865C113.47 7.24418 113.578 7.53191 113.578 7.95184V14.764Z" fill="#0F498F"/>
<path d="M106.23 19.944C106.23 19.5086 106.363 19.1431 106.627 18.8476C106.907 18.5521 107.28 18.4043 107.747 18.4043C108.229 18.4043 108.602 18.5521 108.867 18.8476C109.131 19.1431 109.263 19.5086 109.263 19.944C109.263 20.3795 109.131 20.745 108.867 21.0405C108.602 21.336 108.229 21.4838 107.747 21.4838C107.28 21.4838 106.907 21.336 106.627 21.0405C106.363 20.745 106.23 20.3795 106.23 19.944Z" fill="#2A77D5"/>
<path d="M99.7806 21.4829C99.1584 21.4829 98.5908 21.3974 98.0775 21.2263C97.5798 21.0707 97.1677 20.8919 96.8411 20.6897V18.2168C97.1366 18.4656 97.4865 18.6912 97.8909 18.8933C98.3108 19.08 98.8007 19.1733 99.3606 19.1733C100.294 19.1733 101.033 18.8856 101.577 18.3101C102.121 17.7191 102.393 16.8093 102.393 15.5806C102.393 14.7252 102.261 14.0486 101.997 13.5509C101.748 13.0377 101.398 12.6644 100.947 12.4311C100.496 12.1978 99.9905 12.0812 99.4306 12.0812C98.9951 12.0812 98.6141 12.1356 98.2875 12.2445C97.9609 12.3378 97.6809 12.4545 97.4476 12.5944V19.9665H94.5781V12.3145C94.5781 11.9568 94.6481 11.6613 94.7881 11.428C94.9281 11.1947 95.1614 10.9769 95.488 10.7748C95.939 10.5104 96.4989 10.2848 97.1677 10.0982C97.8364 9.89602 98.5908 9.79492 99.4306 9.79492C100.566 9.79492 101.577 9.99711 102.463 10.4015C103.35 10.7903 104.042 11.4124 104.54 12.2678C105.053 13.1232 105.31 14.2275 105.31 15.5806C105.31 16.887 105.069 17.9757 104.586 18.8467C104.12 19.7176 103.467 20.3786 102.627 20.8297C101.802 21.2652 100.854 21.4829 99.7806 21.4829ZM97.4476 19.1733V25.3322C97.3232 25.3789 97.1443 25.4178 96.9111 25.4489C96.6778 25.4955 96.4211 25.5189 96.1412 25.5189C95.6124 25.5189 95.2158 25.4178 94.9514 25.2156C94.7026 25.0134 94.5781 24.6635 94.5781 24.1658V19.15L97.4476 19.1733Z" fill="#2A77D5"/>
<path d="M86.3595 21.506C85.1308 21.506 84.0732 21.2883 83.1867 20.8528C82.3002 20.4018 81.6236 19.7719 81.157 18.9632C80.706 18.1544 80.4805 17.2057 80.4805 16.117V14.4373H83.42V16.0003C83.42 16.9957 83.6921 17.7656 84.2365 18.3099C84.7964 18.8387 85.504 19.1031 86.3595 19.1031C87.1993 19.1031 87.8992 18.8387 88.4591 18.3099C89.019 17.7656 89.2989 16.9957 89.2989 16.0003V14.4373L92.2618 14.4373V16.117C92.2618 17.2057 92.0285 18.1544 91.5619 18.9632C91.0953 19.7719 90.4187 20.4018 89.5322 20.8528C88.6613 21.2883 87.6037 21.506 86.3595 21.506ZM83.42 15.2538H80.4805V6.99523C80.6049 6.96412 80.7915 6.92524 81.0404 6.87858C81.3048 6.83192 81.5692 6.80859 81.8336 6.80859C82.3935 6.80859 82.7978 6.90969 83.0467 7.11187C83.2955 7.29851 83.42 7.65622 83.42 8.18502V15.2538ZM92.2618 15.2771H89.2989V6.99523C89.4234 6.96412 89.6178 6.92524 89.8822 6.87858C90.1466 6.83192 90.411 6.80859 90.6754 6.80859C91.2197 6.80859 91.6163 6.90969 91.8652 7.11187C92.1296 7.29851 92.2618 7.65622 92.2618 8.18502V15.2771Z" fill="#2A77D5"/>
<path d="M75.5884 19.0092V11.4272H77.9913V19.1958C77.9913 19.5224 77.9214 19.7868 77.7814 19.989C77.6414 20.1912 77.4159 20.3856 77.1048 20.5722C76.7627 20.79 76.2883 20.9922 75.6817 21.1788C75.0752 21.381 74.3753 21.4821 73.5821 21.4821C72.4001 21.4821 71.3658 21.2799 70.4793 20.8755C69.6083 20.4711 68.924 19.849 68.4263 19.0092C67.9442 18.1538 67.7031 17.0651 67.7031 15.7431C67.7031 14.39 67.9442 13.2857 68.4263 12.4303C68.9085 11.5749 69.5695 10.945 70.4093 10.5406C71.2492 10.1207 72.1668 9.91075 73.1622 9.91075C73.7532 9.91075 74.3053 9.98851 74.8186 10.144C75.3318 10.2996 75.7362 10.494 76.0317 10.7273V12.8269C75.7517 12.5625 75.394 12.337 74.9585 12.1504C74.5231 11.9482 74.0176 11.8471 73.4421 11.8471C72.8356 11.8471 72.2757 11.9793 71.7624 12.2437C71.2647 12.4925 70.8681 12.9047 70.5726 13.4801C70.2771 14.0556 70.1294 14.8177 70.1294 15.7664C70.1294 17.0728 70.4404 18.0293 71.0625 18.6359C71.6847 19.2425 72.5167 19.5457 73.5588 19.5457C74.0409 19.5457 74.4375 19.4913 74.7486 19.3824C75.0752 19.2736 75.3551 19.1491 75.5884 19.0092ZM77.9913 11.9637H75.5884V6.01476C75.6973 5.98365 75.8528 5.94477 76.055 5.89811C76.2572 5.85145 76.4672 5.82813 76.6849 5.82813C77.1359 5.82813 77.4625 5.91367 77.6647 6.08475C77.8825 6.24027 77.9913 6.52023 77.9913 6.9246V11.9637Z" fill="#2A77D5"/>
<path d="M65.521 13.9947V16.3043H63.118V14.0881C63.118 13.3104 62.9003 12.7427 62.4648 12.385C62.0293 12.0273 61.4461 11.8484 60.7151 11.8484C60.1708 11.8484 59.6809 11.9184 59.2454 12.0584C58.8099 12.1984 58.4366 12.3539 58.1256 12.525V16.3043H55.7227V12.4783C55.7227 12.1206 55.7926 11.8329 55.9326 11.6151C56.0881 11.3819 56.3292 11.1641 56.6558 10.9619C57.0913 10.6975 57.659 10.4565 58.3589 10.2387C59.0587 10.021 59.8442 9.91211 60.7151 9.91211C62.2238 9.91211 63.398 10.2543 64.2378 10.9386C65.0933 11.6074 65.521 12.6261 65.521 13.9947ZM55.7227 15.0912H58.1256V21.1102C58.0167 21.1413 57.8612 21.1802 57.659 21.2268C57.4724 21.2735 57.2624 21.2968 57.0291 21.2968C56.5936 21.2968 56.267 21.2113 56.0493 21.0402C55.8315 20.8691 55.7227 20.5891 55.7227 20.2003V15.0912ZM63.118 15.0912H65.521V21.1102C65.4121 21.1413 65.2566 21.1802 65.0544 21.2268C64.8522 21.2735 64.6422 21.2968 64.4245 21.2968C63.9734 21.2968 63.6391 21.2113 63.4213 21.0402C63.2191 20.8691 63.118 20.5891 63.118 20.2003V15.0912Z" fill="#2A77D5"/>
<path d="M47.4272 8.93167H47.3105C47.1083 9.53823 46.8595 10.2459 46.564 11.0546C46.284 11.8478 45.9963 12.6799 45.7008 13.5509C45.4053 14.4063 45.1253 15.215 44.8609 15.9771L44.651 16.9103C44.5577 17.1902 44.4488 17.5246 44.3244 17.9134C44.1999 18.3023 44.0677 18.7066 43.9278 19.1266C43.8033 19.5309 43.6789 19.912 43.5545 20.2697C43.4301 20.6274 43.3368 20.9307 43.2745 21.1795C43.1346 21.2262 42.9868 21.2651 42.8313 21.2962C42.6913 21.3428 42.5125 21.3662 42.2947 21.3662C41.9215 21.3662 41.6104 21.2806 41.3615 21.1096C41.1127 20.9385 40.9883 20.6819 40.9883 20.3397C40.9883 20.1842 41.0116 20.0286 41.0583 19.8731C41.1205 19.702 41.1827 19.5154 41.2449 19.3132C41.416 18.7844 41.6337 18.139 41.8981 17.3769C42.1625 16.5992 42.458 15.7594 42.7846 14.8573C43.1112 13.9552 43.4456 13.0454 43.7878 12.1278C44.13 11.1946 44.4566 10.3003 44.7676 9.44491C45.0942 8.5895 45.382 7.84297 45.6308 7.2053C45.7863 7.12754 46.0274 7.04977 46.354 6.97201C46.6806 6.87869 47.0072 6.83203 47.3338 6.83203C47.7693 6.83203 48.1659 6.89424 48.5236 7.01867C48.8969 7.14309 49.1302 7.35305 49.2235 7.64856C49.5812 8.51952 49.9545 9.52268 50.3433 10.658C50.7477 11.7778 51.1521 12.9443 51.5564 14.1574C51.9764 15.3706 52.373 16.5526 52.7462 17.7035C53.1195 18.8544 53.4539 19.8964 53.7494 20.8296C53.625 20.9851 53.4461 21.1096 53.2128 21.2029C52.9795 21.2962 52.7229 21.3428 52.443 21.3428C52.023 21.3428 51.7198 21.2651 51.5331 21.1096C51.3465 20.9385 51.191 20.6741 51.0665 20.3164L49.9701 16.9103L49.7134 15.8138C49.4335 14.9428 49.1458 14.0797 48.8502 13.2243C48.5703 12.3533 48.3059 11.5523 48.0571 10.8213C47.8082 10.0748 47.5982 9.44491 47.4272 8.93167ZM43.5312 17.5868L44.3944 15.6272L50.5533 15.6272L50.9499 17.5868H43.5312Z" fill="#2A77D5"/>
<path d="M34.304 21.4829C33.6819 21.4829 33.1142 21.3974 32.601 21.2263C32.1033 21.0707 31.6911 20.8919 31.3645 20.6897V18.2168C31.66 18.4656 32.0099 18.6912 32.4143 18.8933C32.8342 19.08 33.3242 19.1733 33.8841 19.1733C34.8172 19.1733 35.556 18.8856 36.1003 18.3101C36.6447 17.7191 36.9169 16.8093 36.9169 15.5806C36.9169 14.7252 36.7847 14.0486 36.5203 13.5509C36.2714 13.0377 35.9215 12.6644 35.4705 12.4311C35.0194 12.1978 34.514 12.0812 33.9541 12.0812C33.5186 12.0812 33.1375 12.1356 32.8109 12.2445C32.4843 12.3378 32.2044 12.4545 31.9711 12.5944V19.9665H29.1016V12.3145C29.1016 11.9568 29.1716 11.6613 29.3115 11.428C29.4515 11.1947 29.6848 10.9769 30.0114 10.7748C30.4624 10.5104 31.0223 10.2848 31.6911 10.0982C32.3599 9.89602 33.1142 9.79492 33.9541 9.79492C35.0894 9.79492 36.1003 9.99711 36.9869 10.4015C37.8734 10.7903 38.5655 11.4124 39.0632 12.2678C39.5764 13.1232 39.833 14.2275 39.833 15.5806C39.833 16.887 39.592 17.9757 39.1098 18.8467C38.6432 19.7176 37.99 20.3786 37.1502 20.8297C36.3259 21.2652 35.3771 21.4829 34.304 21.4829ZM31.9711 19.1733V25.3322C31.8466 25.3789 31.6678 25.4178 31.4345 25.4489C31.2012 25.4955 30.9446 25.5189 30.6646 25.5189C30.1358 25.5189 29.7392 25.4178 29.4748 25.2156C29.226 25.0134 29.1016 24.6635 29.1016 24.1658V19.15L31.9711 19.1733Z" fill="#2A77D5"/>
<path d="M20.6524 21.506C19.4237 21.506 18.3661 21.2883 17.4796 20.8528C16.5931 20.4018 15.9166 19.7719 15.45 18.9632C14.999 18.1544 14.7734 17.2057 14.7734 16.117V14.4373H17.7129V16.0003C17.7129 16.9957 17.9851 17.7656 18.5295 18.3099C19.0894 18.8387 19.797 19.1031 20.6524 19.1031C21.4923 19.1031 22.1922 18.8387 22.7521 18.3099C23.312 17.7656 23.5919 16.9957 23.5919 16.0003V14.4373L26.5547 14.4373V16.117C26.5547 17.2057 26.3214 18.1544 25.8548 18.9632C25.3883 19.7719 24.7117 20.4018 23.8252 20.8528C22.9542 21.2883 21.8966 21.506 20.6524 21.506ZM17.7129 15.2538H14.7734L14.7734 6.99523C14.8979 6.96412 15.0845 6.92524 15.3333 6.87858C15.5977 6.83192 15.8621 6.80859 16.1265 6.80859C16.6864 6.80859 17.0908 6.90969 17.3397 7.11187C17.5885 7.29851 17.7129 7.65622 17.7129 8.18502V15.2538ZM26.5547 15.2771H23.5919V6.99523C23.7163 6.96412 23.9107 6.92524 24.1751 6.87858C24.4395 6.83192 24.7039 6.80859 24.9683 6.80859C25.5127 6.80859 25.9093 6.90969 26.1581 7.11187C26.4225 7.29851 26.5547 7.65622 26.5547 8.18502V15.2771Z" fill="#2A77D5"/>
</svg>
