<svg width="20" height="20" viewBox="0 0 20 20" fill="none" xmlns="http://www.w3.org/2000/svg">
<path d="M11.8484 18.5436V14.2601L9.8105 12.3978L9.13112 15.404C9.07418 15.6273 8.95536 15.7994 8.77467 15.9203C8.59383 16.0411 8.39106 16.0798 8.16633 16.0363L3.88008 15.1523C3.68814 15.1166 3.53369 15.0154 3.41675 14.8486C3.29994 14.6817 3.26328 14.4957 3.30675 14.2909C3.34244 14.0928 3.44696 13.9423 3.62029 13.8394C3.79349 13.7364 3.97612 13.6987 4.16821 13.7265L7.60112 14.4113L9.05133 7.07714L7.20362 7.96214V10.0346C7.20362 10.2488 7.12883 10.4301 6.97925 10.5784C6.8298 10.7267 6.64717 10.8009 6.43133 10.8009C6.2155 10.8009 6.0348 10.7272 5.88925 10.5798C5.74369 10.4326 5.67092 10.2509 5.67092 10.0346V7.48922C5.67092 7.31255 5.71821 7.15554 5.81279 7.01818C5.90724 6.88096 6.03203 6.77679 6.18717 6.70568L9.26425 5.45839C9.71647 5.26394 10.0403 5.13852 10.2357 5.08214C10.431 5.02561 10.627 4.99734 10.8238 4.99734C11.1308 4.99734 11.4017 5.06623 11.6365 5.20401C11.8714 5.34165 12.0692 5.53637 12.2299 5.78818L13.1284 7.18401C13.4242 7.66651 13.8174 8.09783 14.3078 8.47797C14.7981 8.85811 15.3756 9.10373 16.0405 9.21484C16.2513 9.2579 16.4298 9.3538 16.5759 9.50255C16.722 9.6513 16.7951 9.82679 16.7951 10.029C16.7951 10.2465 16.722 10.4295 16.5757 10.578C16.4295 10.7266 16.254 10.783 16.0495 10.7473C15.2736 10.6562 14.5795 10.4126 13.9672 10.0165C13.3548 9.62026 12.7748 9.0638 12.2272 8.34714L11.4853 11.3326L13.0786 12.8126C13.1715 12.8928 13.2413 12.9861 13.2878 13.0923C13.3343 13.1986 13.3576 13.3091 13.3576 13.424V18.5436C13.3576 18.7544 13.2844 18.9329 13.138 19.079C12.9917 19.2251 12.813 19.2982 12.6017 19.2982C12.3906 19.2982 12.2123 19.2251 12.0667 19.079C11.9212 18.9329 11.8484 18.7544 11.8484 18.5436ZM12.102 4.16401C11.6407 4.16401 11.249 4.00172 10.9267 3.67714C10.6047 3.35241 10.4436 2.95943 10.4436 2.49818C10.4436 2.03693 10.6041 1.64519 10.9251 1.32297C11.2462 1.00089 11.6374 0.839844 12.0986 0.839844C12.5599 0.839844 12.9514 1.00082 13.2732 1.32276C13.5952 1.64471 13.7561 2.03721 13.7561 2.50026C13.7561 2.95998 13.5957 3.35221 13.2749 3.67693C12.9542 4.00165 12.5632 4.16401 12.102 4.16401Z" fill="#629DE4"/>
</svg>
