<svg width="16" height="16" viewBox="0 0 16 16" fill="none" xmlns="http://www.w3.org/2000/svg">
<g clip-path="url(#clip0_7207_165777)">
<mask id="mask0_7207_165777" style="mask-type:alpha" maskUnits="userSpaceOnUse" x="0" y="0" width="16" height="16">
<rect width="16" height="16" fill="#D9D9D9"/>
</mask>
<g mask="url(#mask0_7207_165777)">
<path d="M9.27272 1.34931C10.8515 1.71109 12.1427 2.52109 13.1462 3.77931C14.1499 5.03754 14.6517 6.47826 14.6517 8.10148C14.6517 9.7247 14.1499 11.1638 13.1462 12.4188C12.1427 13.6739 10.8515 14.48 9.27272 14.837C9.06694 14.8766 8.88255 14.8323 8.71955 14.704C8.55644 14.5758 8.47488 14.4056 8.47488 14.1935C8.47488 14.0336 8.52077 13.8935 8.61255 13.7731C8.70433 13.6529 8.82705 13.5785 8.98072 13.55C10.2618 13.2611 11.3072 12.6094 12.1169 11.595C12.9265 10.5804 13.3314 9.41592 13.3314 8.10148C13.3314 6.78703 12.9266 5.62254 12.1169 4.60798C11.3072 3.59354 10.2618 2.94187 8.98072 2.65298C8.82705 2.62442 8.70433 2.55003 8.61255 2.42981C8.52077 2.30948 8.47488 2.16937 8.47488 2.00948C8.47488 1.79737 8.55644 1.62281 8.71955 1.48581C8.88255 1.34892 9.06694 1.30342 9.27272 1.34931ZM6.22638 1.36598C6.43216 1.30898 6.61655 1.34892 6.77955 1.48581C6.94266 1.62281 7.02422 1.79737 7.02422 2.00948C7.02422 2.16303 6.97988 2.30153 6.89122 2.42498C6.80255 2.54842 6.68383 2.62442 6.53505 2.65298C6.22538 2.73076 5.9221 2.82637 5.62522 2.93981C5.32844 3.05337 5.04427 3.20459 4.77272 3.39348C4.65249 3.46792 4.51638 3.49365 4.36438 3.47065C4.21249 3.44776 4.08194 3.38487 3.97272 3.28198C3.81905 3.12198 3.75216 2.94031 3.77205 2.73698C3.79183 2.53365 3.89038 2.37492 4.06772 2.26081C4.40249 2.05459 4.75116 1.87609 5.11372 1.72531C5.47627 1.57465 5.84716 1.45487 6.22638 1.36598ZM2.92055 4.31748C3.04088 4.42037 3.1141 4.54898 3.14022 4.70331C3.16622 4.85765 3.13333 4.99498 3.04155 5.11531C2.8701 5.39309 2.72327 5.67603 2.60105 5.96415C2.47883 6.25237 2.37883 6.55442 2.30105 6.87031C2.27249 7.01287 2.1981 7.13003 2.07788 7.22181C1.95755 7.31359 1.81744 7.35948 1.65755 7.35948C1.44544 7.35948 1.27527 7.27792 1.14705 7.11481C1.01871 6.95181 0.974382 6.76742 1.01405 6.56165C1.10294 6.18242 1.22272 5.81153 1.37338 5.44898C1.52416 5.08642 1.70266 4.74087 1.90888 4.41231C2.02299 4.23509 2.18172 4.13498 2.38505 4.11198C2.58838 4.08898 2.76688 4.15748 2.92055 4.31748ZM1.65755 8.82681C1.8111 8.82681 1.95083 8.87115 2.07672 8.95981C2.2026 9.04848 2.28294 9.1672 2.31772 9.31598C2.38438 9.62565 2.47883 9.92615 2.60105 10.2175C2.72327 10.5087 2.8701 10.7932 3.04155 11.071C3.1271 11.2024 3.15838 11.3425 3.13538 11.4913C3.11249 11.6401 3.04088 11.7715 2.92055 11.8855C2.77799 12.0344 2.60227 12.0973 2.39338 12.0743C2.18449 12.0513 2.02299 11.9543 1.90888 11.7833C1.70266 11.4485 1.52577 11.0999 1.37821 10.7373C1.23055 10.3748 1.10916 10.0039 1.01405 9.62465C0.974382 9.41887 1.01871 9.23448 1.14705 9.07148C1.27527 8.90837 1.44544 8.82681 1.65755 8.82681ZM4.76338 12.8188C5.04116 12.9904 5.32844 13.1357 5.62521 13.2548C5.9221 13.3738 6.22538 13.4722 6.53505 13.55C6.68383 13.5785 6.80255 13.6545 6.89122 13.778C6.97988 13.9014 7.02422 14.0399 7.02422 14.1935C7.02422 14.4056 6.94266 14.5758 6.77955 14.704C6.61655 14.8323 6.43216 14.8766 6.22638 14.837C5.84716 14.7481 5.47627 14.6311 5.11371 14.486C4.75116 14.3408 4.40249 14.1595 4.06772 13.9421C3.89672 13.828 3.80127 13.6665 3.78138 13.4576C3.7616 13.2488 3.82299 13.073 3.96555 12.9305C4.07955 12.8101 4.21094 12.7385 4.35971 12.7156C4.50849 12.6926 4.64305 12.727 4.76338 12.8188Z" fill="white"/>
<path d="M6.95369 8.4437L6.00936 7.5182C5.89491 7.39942 5.75891 7.34003 5.60135 7.34003C5.44391 7.34003 5.3058 7.39925 5.18702 7.5177C5.06813 7.63625 5.00591 7.7777 5.00035 7.94203C4.9948 8.10636 5.05147 8.24798 5.17035 8.36686L6.46452 9.66103C6.59708 9.79248 6.75447 9.8582 6.93669 9.8582C7.11902 9.8582 7.27586 9.79248 7.40719 9.66103L10.0615 7.01603C10.1814 6.8977 10.2367 6.75798 10.2275 6.59686C10.2183 6.43575 10.1556 6.29581 10.0395 6.17703C9.92341 6.05814 9.78502 5.9987 9.62436 5.9987C9.4638 5.9987 9.32352 6.05814 9.20352 6.17703L6.95369 8.4437Z" fill="white"/>
</g>
</g>
<defs>
<clipPath id="clip0_7207_165777">
<rect width="16" height="16" fill="white"/>
</clipPath>
</defs>
</svg>
