<svg width="20" height="20" viewBox="0 0 20 20" fill="none" xmlns="http://www.w3.org/2000/svg">
<path d="M4.91437 8.78321L3.87272 9.35929C3.63901 9.46256 3.39686 9.48203 3.14626 9.41771C2.89565 9.3534 2.7169 9.21135 2.61001 8.99154L1.04299 6.21796C0.90048 5.96857 0.863341 5.74892 0.931577 5.559C0.999814 5.36908 1.14776 5.20679 1.37541 5.07212L6.31383 2.19531H7.78847C8.00406 2.19531 8.1825 2.26597 8.32381 2.40727C8.46511 2.54858 8.53576 2.72702 8.53576 2.9426V3.31398C8.53576 3.76326 8.67103 4.12316 8.94156 4.39369C9.21208 4.66421 9.57199 4.79948 10.0213 4.79948C10.4705 4.79948 10.8289 4.66421 11.0964 4.39369C11.3639 4.12316 11.4977 3.76326 11.4977 3.31398V2.9426C11.4977 2.72702 11.5664 2.54858 11.7038 2.40727C11.8412 2.26597 12.0216 2.19531 12.245 2.19531H13.7079L18.6463 5.07212C18.8739 5.20679 19.0184 5.36908 19.0797 5.559C19.141 5.74892 19.1073 5.96857 18.9787 6.21796L17.3908 8.99154C17.284 9.2035 17.0809 9.34903 16.7817 9.42812C16.4825 9.50724 16.2368 9.5021 16.0448 9.41273L15.0358 8.72977V16.689C15.0358 16.9897 14.9191 17.2494 14.6857 17.468C14.4523 17.6866 14.1852 17.7959 13.8845 17.7959H6.02126C5.72054 17.7959 5.46088 17.6866 5.24226 17.468C5.02367 17.2494 4.91437 16.9897 4.91437 16.689V8.78321ZM6.56474 5.96344V16.1455H13.3736V5.96344L16.3075 7.60294L17.1861 6.04858L13.4551 3.9254H13.0801C12.9455 4.66755 12.5999 5.27579 12.0435 5.75012C11.487 6.22446 10.8129 6.46162 10.0213 6.46162C9.2296 6.46162 8.55206 6.22446 7.98866 5.75012C7.42526 5.27579 7.08015 4.66755 6.95333 3.9254H6.57833L2.83558 6.04858L3.7142 7.60294L6.56474 5.96344Z" fill="#629DE4"/>
</svg>
