<svg width="20" height="20" viewBox="0 0 20 20" fill="none" xmlns="http://www.w3.org/2000/svg">
<mask id="mask0_5863_136871" style="mask-type:alpha" maskUnits="userSpaceOnUse" x="0" y="0" width="20" height="20">
<rect width="20" height="20" fill="#D9D9D9"/>
</mask>
<g mask="url(#mask0_5863_136871)">
<path d="M10.0308 19.5035C12.499 19.5035 15.1478 19.1544 17.2471 18.0204C19.0817 17.0293 19.999 15.807 19.999 14.3535C19.999 13.8368 19.8918 13.3539 19.6774 12.9046C19.4631 12.4552 19.1415 12.0392 18.7128 11.6564C17.7315 10.7803 16.9375 12.0822 17.4574 12.6091C17.7205 12.8758 17.9567 13.1214 18.1088 13.4066C18.2608 13.6919 18.3367 14.0071 18.3367 14.3521C18.3367 15.279 17.5529 16.0948 15.9853 16.7993C14.5122 17.4616 12.059 17.8126 10.0308 17.8526C8.00256 17.8126 5.54934 17.4616 4.07625 16.7993C2.50861 16.0948 1.72479 15.279 1.72479 14.3521C1.72479 14.0071 1.80076 13.6919 1.95271 13.4066C2.10479 13.1214 2.34106 12.8758 2.60417 12.6091C3.12402 12.0822 2.33006 10.7803 1.34875 11.6564C0.92 12.0392 0.598472 12.4552 0.384167 12.9046C0.169722 13.3539 0.0625 13.8368 0.0625 14.3535C0.0625 15.807 0.979792 17.0293 2.81437 18.0204C4.9137 19.1544 7.49902 19.5035 10.0308 19.5035Z" fill="#629DE4"/>
<path d="M16.9875 2.24115V13.1727C16.9875 13.5957 16.8387 13.9564 16.5412 14.255C16.2435 14.5536 15.88 14.703 15.4507 14.703H13.7814C13.5813 14.703 13.4136 14.6358 13.2783 14.5016C13.1429 14.3673 13.0752 14.201 13.0752 14.0026C13.0752 13.8041 13.1429 13.638 13.2783 13.5042C13.4136 13.3704 13.5813 13.3035 13.7814 13.3035H15.5816V2.11042H10.425V2.87274C10.3552 2.94728 10.2523 3.03838 10.1255 3.05451C9.58236 3.12366 9.31629 3.02288 9.21877 2.92604C9.08567 2.79375 9.01912 2.62986 9.01912 2.43437V1.67361C9.01912 1.36678 9.12959 1.12963 9.35054 0.962152C9.57161 0.794675 9.83596 0.710938 10.1436 0.710938H15.4507C15.88 0.710938 16.2435 0.860243 16.5412 1.15885C16.8387 1.45747 16.9875 1.81823 16.9875 2.24115ZM3.41374 8.48021C3.41374 8.22859 3.46923 7.99253 3.58023 7.77205C3.69123 7.55156 3.84898 7.36852 4.05349 7.22292L6.99429 4.84062C7.13608 4.73831 7.2811 4.66615 7.42936 4.62413C7.57763 4.58212 7.72913 4.56111 7.88388 4.56111C8.04383 4.56111 8.19765 4.58165 8.34533 4.62274C8.49314 4.66395 8.63642 4.73657 8.7752 4.84062L11.6946 7.22292C11.8987 7.36586 12.0564 7.54902 12.1677 7.7724C12.279 7.99578 12.3346 8.23171 12.3346 8.48021V13.6863C12.3346 13.9658 12.235 14.2051 12.0358 14.4043C11.8367 14.6034 11.5974 14.703 11.3177 14.703H9.74638C9.46686 14.703 9.22751 14.6034 9.02832 14.4043C8.82925 14.2051 8.72971 13.9658 8.72971 13.6863V10.9771H7.03978V13.6863C7.03978 13.9658 6.94024 14.2051 6.74117 14.4043C6.54209 14.6034 6.30274 14.703 6.02311 14.703H4.4304C4.15077 14.703 3.91142 14.6034 3.71235 14.4043C3.51327 14.2051 3.41374 13.9658 3.41374 13.6863V8.48021ZM4.82294 8.41615V13.3035H5.88249V10.8365C5.88249 10.5568 5.98202 10.3175 6.1811 10.1184C6.38017 9.91933 6.61952 9.81979 6.89915 9.81979H8.87033C9.14996 9.81979 9.38932 9.91933 9.58839 10.1184C9.78746 10.3175 9.887 10.5568 9.887 10.8365V13.3035H10.9252V8.41615L7.88474 5.93767L4.82294 8.41615ZM13.1467 4.73246H13.7931C13.8622 4.73246 13.9218 4.70775 13.9721 4.65833C14.0223 4.60903 14.0474 4.54815 14.0474 4.47569V3.82951C14.0474 3.7603 14.0228 3.70058 13.9735 3.65035C13.924 3.60012 13.8632 3.575 13.7908 3.575H13.1445C13.0754 3.575 13.0157 3.59971 12.9655 3.64913C12.9152 3.69844 12.8901 3.75926 12.8901 3.8316V4.47795C12.8901 4.54716 12.9148 4.60689 12.9641 4.65712C13.0135 4.70735 13.0744 4.73246 13.1467 4.73246ZM13.1467 8.05417H13.7931C13.8622 8.05417 13.9218 8.02946 13.9721 7.98003C14.0223 7.93073 14.0474 7.86991 14.0474 7.79757V7.15121C14.0474 7.082 14.0228 7.02228 13.9735 6.97205C13.924 6.92182 13.8632 6.8967 13.7908 6.8967H13.1445C13.0754 6.8967 13.0157 6.92141 12.9655 6.97083C12.9152 7.02014 12.8901 7.08102 12.8901 7.15347V7.79965C12.8901 7.86887 12.9148 7.92859 12.9641 7.97882C13.0135 8.02905 13.0744 8.05417 13.1467 8.05417ZM13.1467 11.3644H13.7931C13.8622 11.3644 13.9218 11.3397 13.9721 11.2903C14.0223 11.241 14.0474 11.1801 14.0474 11.1076V10.4615C14.0474 10.3922 14.0228 10.3325 13.9735 10.2823C13.924 10.2321 13.8632 10.2069 13.7908 10.2069H13.1445C13.0754 10.2069 13.0157 10.2317 12.9655 10.2811C12.9152 10.3304 12.8901 10.3912 12.8901 10.4635V11.1099C12.8901 11.1791 12.9148 11.2388 12.9641 11.2891C13.0135 11.3393 13.0744 11.3644 13.1467 11.3644Z" fill="#629DE4"/>
</g>
</svg>
