<svg width="20" height="20" viewBox="0 0 20 20" fill="none" xmlns="http://www.w3.org/2000/svg">
<mask id="mask0_7207_138949" style="mask-type:alpha" maskUnits="userSpaceOnUse" x="0" y="0" width="20" height="20">
<rect width="20" height="20" fill="#D9D9D9"/>
</mask>
<g mask="url(#mask0_7207_138949)">
<path d="M4.74863 17.6309C4.29502 17.6309 3.90655 17.4692 3.58322 17.1459C3.26002 16.8226 3.09842 16.4341 3.09842 15.9805V9.27672L2.02488 10.0936C1.85766 10.2283 1.67051 10.2813 1.46342 10.2526C1.2562 10.2238 1.08905 10.1267 0.961966 9.9613C0.834883 9.79588 0.784813 9.60693 0.811758 9.39443C0.838841 9.18207 0.938285 9.01512 1.11009 8.89359L9.00322 2.88443C9.15363 2.77762 9.31197 2.69401 9.47822 2.63359C9.64447 2.57318 9.81412 2.54297 9.98717 2.54297C10.1684 2.54297 10.3426 2.57318 10.5097 2.63359C10.6769 2.69401 10.8356 2.77762 10.9859 2.88443L18.8882 8.91443C19.0604 9.03623 19.1584 9.20332 19.1822 9.41568C19.2061 9.6279 19.1545 9.81783 19.0276 9.98547C18.8945 10.1534 18.7301 10.2471 18.5343 10.2665C18.3384 10.286 18.1554 10.2323 17.9851 10.1055L16.8909 9.27672V15.9805C16.8909 16.4341 16.7302 16.8226 16.4086 17.1459C16.0872 17.4692 15.694 17.6309 15.2288 17.6309H4.74863ZM4.61926 16.1217H15.3701V8.11818L9.98863 4.01672L4.61926 8.1138V16.1217Z" fill="#2A77D5"/>
</g>
<path d="M5.83203 10.8333L10.4154 5L9.3737 7.91667L8.33203 10.2083L12.9154 12.0833L11.8737 16.4583L13.5404 16.6667L10.4154 17.0833H7.70703L10.207 13.5417L5.83203 10.8333Z" fill="#2A77D5" stroke="#2A77D5" stroke-width="1.5"/>
</svg>
