<svg width="20" height="20" viewBox="0 0 20 20" fill="none" xmlns="http://www.w3.org/2000/svg">
<mask id="mask0_5863_136632" style="mask-type:alpha" maskUnits="userSpaceOnUse" x="0" y="0" width="20" height="20">
<rect width="20" height="20" fill="#D9D9D9"/>
</mask>
<g mask="url(#mask0_5863_136632)">
<path d="M9.99875 18.5104C8.08819 18.5104 6.47014 17.8474 5.14458 16.5214C3.81903 15.1956 3.15625 13.5774 3.15625 11.667C3.15625 10.0665 3.65278 8.50071 4.64583 6.96974C5.63889 5.43877 7.00743 4.12287 8.75146 3.02203C9.05813 2.82217 9.37229 2.81578 9.69396 3.00287C10.0155 3.18995 10.1763 3.47835 10.1763 3.86808V5.24495C10.1763 5.6687 10.3224 6.02391 10.6146 6.31058C10.9068 6.5971 11.2643 6.74037 11.6871 6.74037C11.9135 6.74037 12.1244 6.69238 12.32 6.59641C12.5154 6.5003 12.6888 6.35564 12.8402 6.16245C12.966 6.0087 13.1163 5.90488 13.291 5.85099C13.4658 5.79724 13.6313 5.81988 13.7877 5.91891C14.7367 6.58335 15.4832 7.42037 16.0271 8.42995C16.571 9.43939 16.8429 10.5184 16.8429 11.667C16.8429 13.5774 16.1799 15.1956 14.8537 16.5214C13.5278 17.8474 11.9094 18.5104 9.99875 18.5104ZM4.81833 11.667C4.81833 12.4166 4.97701 13.1238 5.29437 13.7885C5.61174 14.4532 6.06181 15.0151 6.64458 15.4741C6.58903 15.3406 6.54736 15.2004 6.51958 15.0533C6.49181 14.9063 6.47792 14.7613 6.47792 14.6181C6.51708 14.2129 6.62194 13.8355 6.7925 13.4858C6.96319 13.1362 7.19646 12.8135 7.49229 12.5177L9.99958 10.0402L12.5185 12.5177C12.8145 12.8135 13.0478 13.1362 13.2183 13.4858C13.3889 13.8355 13.4899 14.2129 13.5212 14.6181C13.5212 14.7613 13.5074 14.9063 13.4796 15.0533C13.4518 15.2004 13.4141 15.3406 13.3665 15.4741C13.9334 15.0151 14.3795 14.4532 14.7048 13.7885C15.0299 13.1238 15.1925 12.4166 15.1925 11.667C15.1925 10.9798 15.0481 10.3037 14.7592 9.6387C14.4703 8.97356 14.0556 8.35891 13.515 7.79474C13.2233 7.9796 12.9203 8.12516 12.606 8.23141C12.2917 8.33766 11.9853 8.39078 11.6867 8.39078C10.8633 8.39078 10.168 8.12807 9.60063 7.60266C9.03326 7.07738 8.70639 6.39294 8.62 5.54932V5.13266C7.45333 6.00016 6.52806 7.02356 5.84417 8.20287C5.16028 9.38217 4.81833 10.5369 4.81833 11.667ZM9.99958 12.3554L8.65292 13.6937C8.4643 13.8741 8.32382 14.0716 8.23146 14.2862C8.1391 14.5008 8.09292 14.7354 8.09292 14.9902C8.09292 15.5104 8.27931 15.9502 8.65208 16.3093C9.02486 16.6686 9.47472 16.8483 10.0017 16.8483C10.5286 16.8483 10.9778 16.6677 11.3492 16.3066C11.7206 15.9455 11.9062 15.5045 11.9062 14.9835C11.9062 14.7368 11.8603 14.5061 11.7685 14.2912C11.6766 14.0762 11.5415 13.8785 11.3633 13.6981L9.99958 12.3554Z" fill="#707070"/>
</g>
</svg>
