<svg width="20" height="20" viewBox="0 0 20 20" fill="none" xmlns="http://www.w3.org/2000/svg">
<mask id="mask0_5863_158820" style="mask-type:alpha" maskUnits="userSpaceOnUse" x="0" y="0" width="20" height="20">
<rect width="20" height="20" fill="#D9D9D9"/>
</mask>
<g mask="url(#mask0_5863_158820)">
<path d="M4.75254 17.6309C4.29893 17.6309 3.91046 17.4692 3.58712 17.1459C3.26393 16.8226 3.10233 16.4341 3.10233 15.9805V9.27672L2.02879 10.0936C1.86157 10.2283 1.67441 10.2813 1.46733 10.2526C1.26011 10.2238 1.09296 10.1267 0.965872 9.9613C0.838789 9.79588 0.788719 9.60693 0.815664 9.39443C0.842747 9.18207 0.942192 9.01512 1.114 8.89359L9.00712 2.88443C9.15754 2.77762 9.31587 2.69401 9.48212 2.63359C9.64837 2.57318 9.81803 2.54297 9.99108 2.54297C10.1723 2.54297 10.3465 2.57318 10.5136 2.63359C10.6808 2.69401 10.8396 2.77762 10.9898 2.88443L18.8921 8.91443C19.0643 9.03623 19.1623 9.20332 19.1861 9.41568C19.21 9.6279 19.1584 9.81783 19.0315 9.98547C18.8984 10.1534 18.734 10.2471 18.5382 10.2665C18.3423 10.286 18.1593 10.2323 17.989 10.1055L16.8948 9.27672V15.9805C16.8948 16.4341 16.7341 16.8226 16.4125 17.1459C16.0912 17.4692 15.6979 17.6309 15.2327 17.6309H4.75254ZM4.62316 16.1217H15.374V8.11818L9.99254 4.01672L4.62316 8.1138V16.1217Z" fill="#707070"/>
</g>
<path d="M5.83594 10.8372L10.4193 5.00391L9.3776 7.92057L8.33594 10.2122L12.9193 12.0872L11.8776 16.4622L13.5443 16.6706L10.4193 17.0872H7.71094L10.2109 13.5456L5.83594 10.8372Z" fill="#707070" stroke="#707070" stroke-width="1.5"/>
</svg>
