<svg width="20" height="20" viewBox="0 0 20 20" fill="none" xmlns="http://www.w3.org/2000/svg">
    <mask id="mask0_6769_187835" style="mask-type:alpha" maskUnits="userSpaceOnUse" x="0" y="0" width="20" height="20">
        <rect width="20" height="20" fill="#D9D9D9" />
    </mask>
    <g mask="url(#mask0_6769_187835)">
        <path fill-rule="evenodd" clip-rule="evenodd"
            d="M12.3575 1.77592C11.7012 2.01133 11.16 2.31218 11.1032 2.33721C10.9435 2.40759 9.74863 3.59171 9.62267 3.8353C9.47524 4.12035 9.4661 4.69346 9.62267 5.09689C9.70403 5.30652 9.99936 5.69945 10.0261 6.18561C10.049 6.60193 10.1013 7.03101 10.1424 7.13903C10.1962 7.28081 10.1965 7.48961 10.1434 7.88923C9.83522 10.2046 11.5555 12.2157 13.8568 12.2306C15.2241 12.2395 16.312 11.6833 17.0529 10.5965C17.5094 9.9268 17.6595 9.45933 17.6946 8.59654C17.7109 8.19801 17.6917 7.76048 17.6515 7.61502C17.5986 7.42367 17.6003 7.31374 17.6576 7.20893C17.7008 7.12989 17.7583 6.71234 17.7853 6.28101C17.818 5.76008 18.121 5.36872 18.218 5.09689C18.4169 4.53948 18.3649 4.2266 17.9888 3.71828C17.8284 3.50136 17.3242 3.05461 17.0643 2.81082C16.5951 2.37069 16.6629 2.19914 15.4423 1.77592C15.0143 1.62752 14.52 1.43209 14.2149 1.30869C14.0284 1.23321 13.8205 1.23015 13.6324 1.30174C13.3099 1.42446 12.7808 1.62418 12.3575 1.77592ZM12.7499 2.82555L11.7111 3.17818L10.4953 4.38876L10.5995 4.69455C10.7022 4.99562 10.7074 4.99958 10.9505 4.95662C11.6377 4.83516 12.6761 4.71507 13.05 4.71391C13.7417 4.71171 14.3388 4.69276 15.0843 4.73539C15.4969 4.75899 16.0953 4.82486 16.4141 4.88174C16.7329 4.93861 17.0255 4.98519 17.0643 4.98526C17.1031 4.98526 17.1845 4.85132 17.2452 4.68752L17.3555 4.38978L16.1072 3.15956L15.0502 2.81082C14.4687 2.61906 13.9471 2.46453 13.8909 2.46753C13.8347 2.47046 13.3212 2.63161 12.7499 2.82555ZM11.9133 4.16699H12.7998V3.34867H11.9133V4.16699ZM15.0097 3.44318C14.9897 3.49515 14.9831 3.67156 14.9948 3.8353L15.0161 4.1329L15.8686 4.17347V3.34867H15.4573C15.1696 3.34867 15.035 3.3771 15.0097 3.44318ZM7.20129 5.66249C6.73607 5.99746 6.10637 6.51151 5.80182 6.80474C5.33516 7.25428 5.19421 7.44563 4.90438 8.02357C4.71528 8.40062 4.5094 8.75161 4.44687 8.80351C4.38427 8.85547 4.25831 9.0456 4.16679 9.22611C4.07535 9.40662 3.95348 9.55433 3.89593 9.55433C3.43978 9.55433 3.20185 9.97597 2.13529 12.6748C1.77571 13.5847 1.33531 14.6434 1.15664 15.0275C0.840629 15.7069 0.831764 15.7436 0.832037 16.3737C0.832309 16.9517 0.853927 17.0657 1.0326 17.4307C1.43105 18.2449 2.1983 18.7605 3.01131 18.7605C3.30073 18.7605 7.82479 18.0722 8.65703 17.9016L8.84457 17.8632V18.2822C8.84457 18.7912 8.91276 18.9328 9.20204 19.0248C9.48034 19.1132 17.2053 19.1193 17.512 19.0313C17.9153 18.9157 17.9098 18.9539 17.9122 16.2513L17.9142 13.9382C17.9143 13.8344 17.8732 13.7349 17.7998 13.6616L17.7567 13.6185C17.3417 13.2035 14.5994 12.9448 12.2202 13.0963C10.2578 13.2213 8.84204 13.4479 7.04295 13.9252C6.48335 14.0738 6.00387 14.1867 5.97748 14.1763C5.95102 14.1659 6.06511 13.5897 6.23096 12.8958C6.41747 12.1157 6.52501 11.5172 6.51267 11.3274C6.47987 10.8206 6.61735 10.6018 7.13269 10.3409C7.38037 10.2155 7.66194 10.0255 7.75844 9.91882C7.98382 9.66951 8.73791 8.59899 8.87539 8.33317C9.0308 8.03264 9.00673 7.7019 8.80822 7.40942L8.63555 7.15492L8.94461 6.67183C9.27971 6.14803 9.32956 5.87539 9.1528 5.53354C8.9858 5.21057 8.72918 5.05352 8.36844 5.05352C8.07261 5.05352 7.98007 5.1018 7.20129 5.66249ZM11.7852 5.67068C11.321 5.74085 10.9246 5.81484 10.9044 5.83509C10.7987 5.94079 11.018 5.93834 11.6855 5.8265C12.7257 5.65226 15.1244 5.65226 16.1646 5.8265C16.8301 5.93806 17.0512 5.94072 16.9466 5.83605C16.9269 5.81634 16.4998 5.73976 15.9975 5.66583C14.7909 5.48832 12.9769 5.49037 11.7852 5.67068ZM12.5601 6.56286C11.6981 6.64517 11.0086 6.77869 10.9785 6.86912C10.9361 6.99623 11.3096 7.38316 11.6036 7.51669C11.8505 7.62887 12.0852 7.64203 13.8568 7.64298C15.094 7.64373 15.936 7.61591 16.1057 7.56886C16.4018 7.48662 16.922 7.02051 16.875 6.87948C16.8396 6.77324 16.2238 6.65669 15.1835 6.55924C14.297 6.47618 13.4553 6.47734 12.5601 6.56286ZM7.31163 6.90219C6.65704 7.39026 6.11564 7.99111 5.84437 8.5308L5.32503 9.39454L5.52037 9.78523L5.80182 10.3409L6.65956 9.38473C6.85009 9.28776 7.05665 9.10268 7.19645 8.90348L7.42374 8.5797L7.24842 8.41712C6.94734 8.13793 6.95607 7.98416 7.30972 7.33529C7.48573 7.01246 7.61898 6.73757 7.60589 6.72441C7.59273 6.71132 7.46036 6.79131 7.31163 6.90219ZM11.1807 8.66105C11.2849 9.81053 12.5529 11.0057 13.8568 11.0155C15.0924 11.0057 16.3951 10.0172 16.6266 8.85895C16.642 8.78193 16.6812 8.60889 16.4663 8.73164C16.3507 8.79766 15.7397 8.82514 14.0379 8.84109C12.1244 8.85896 11.902 8.85895 11.4542 8.75681L11.1444 8.65124L11.1807 8.66105ZM4.33068 11.0684C4.24707 11.2671 3.87228 12.1968 3.49769 13.1345C3.12316 14.0722 2.69238 15.1104 2.54051 15.4417C2.29126 15.9853 2.29976 16.0528 2.29167 16.0829C2.19946 16.4271 2.10358 16.8828 2.48799 17.1462C2.81055 17.3672 3.04296 17.3533 5.33257 16.9766C6.38276 16.8038 7.74214 16.5814 8.3535 16.4824L9.465 16.3023C9.81802 16.2317 9.87321 16.4271 9.87321 16.4824V17.6197H16.4279L16.4473 16.3426C16.4579 15.4254 16.4501 14.9952 16.4298 14.9091C16.3973 14.7714 16.324 14.7414 15.816 14.6586C15.03 14.5304 12.0796 14.5188 11.0268 14.6407C9.37621 14.8317 7.23335 15.3004 5.84914 15.7732C5.11401 16.0242 4.49875 16.0032 4.32499 15.6673C4.23143 15.4863 4.2525 14.9631 4.63439 13.3305C4.85977 12.367 5.04417 11.5675 5.04417 11.5538C5.04417 11.5229 4.68494 10.7847 4.56779 10.7397C4.51548 10.7197 4.4239 10.8466 4.33068 11.0684Z"
            fill="#629DE4" />
        <path
            d="M13.9203 2.75272L13.1389 3.14342C13.204 3.66434 12.9436 4.51085 13.9203 4.51085C14.8971 4.51085 14.7017 3.66434 14.7017 3.14342L13.9203 2.75272Z"
            fill="#629DE4" />
    </g>
</svg>